<mxfile host="app.diagrams.net" modified="2021-11-06T19:17:19.622Z" agent="5.0 (X11)" etag="gNdmgrNcZpAzrTdGJ9CU" version="15.7.0" type="github">
  <diagram id="qMa-_QxccuimeE_cbAPb" name="Page-1">
    <mxGraphModel dx="2274" dy="1909" grid="1" gridSize="10" guides="1" tooltips="1" connect="1" arrows="1" fold="1" page="1" pageScale="1" pageWidth="850" pageHeight="1100" math="0" shadow="0">
      <root>
        <mxCell id="0" />
        <mxCell id="1" parent="0" />
        <mxCell id="Ih-YGPsCaoq6DHACvWlH-1" value="&lt;font color=&quot;#FF6666&quot;&gt;&lt;i&gt;&lt;b&gt;&lt;font face=&quot;Times New Roman&quot;&gt;DEVGIRL&lt;/font&gt;&lt;/b&gt;&lt;/i&gt;&lt;/font&gt;" style="html=1;shadow=0;dashed=0;shape=mxgraph.bootstrap.rrect;rSize=5;strokeColor=#b85450;html=1;whiteSpace=wrap;fillColor=#FF9933;verticalAlign=middle;align=center;spacing=20;fontSize=60;gradientColor=#F19C99;" vertex="1" parent="1">
          <mxGeometry y="-10" width="850" height="210" as="geometry" />
        </mxCell>
        <mxCell id="Ih-YGPsCaoq6DHACvWlH-2" value="&lt;font color=&quot;#666666&quot;&gt;&lt;i&gt;&lt;b&gt;¿Buscar reinventarte? ¿Buscas explorarte en un nuevo ambito?Empoderarte &lt;br&gt;&lt;br&gt;Last updated 3 mins ago&lt;/b&gt;&lt;/i&gt;&lt;/font&gt;" style="fillColor=none;strokeColor=none;fontColor=#ffffff;html=1;verticalAlign=top;align=left;spacing=20;fontSize=14;horizontal=1;gradientDirection=radial;gradientColor=#FFFFFF;" vertex="1" parent="Ih-YGPsCaoq6DHACvWlH-1">
          <mxGeometry width="791" height="70" relative="1" as="geometry">
            <mxPoint x="10" y="130" as="offset" />
          </mxGeometry>
        </mxCell>
        <mxCell id="Ih-YGPsCaoq6DHACvWlH-7" value="" style="html=1;shadow=0;dashed=0;fillColor=#EA6B66;strokeColor=#FF0080;fontSize=16;align=left;spacing=15;gradientDirection=north;gradientColor=#F19C99;strokeWidth=2;" vertex="1" parent="1">
          <mxGeometry y="200" width="850" height="70" as="geometry" />
        </mxCell>
        <mxCell id="Ih-YGPsCaoq6DHACvWlH-8" value="Home" style="fillColor=none;strokeColor=none;fontSize=14;fontColor=#181819;align=center;" vertex="1" parent="Ih-YGPsCaoq6DHACvWlH-7">
          <mxGeometry width="70" height="40" relative="1" as="geometry">
            <mxPoint x="300" y="15" as="offset" />
          </mxGeometry>
        </mxCell>
        <mxCell id="Ih-YGPsCaoq6DHACvWlH-13" value="&lt;font color=&quot;#FF0080&quot;&gt;Buscar&lt;/font&gt;" style="html=1;shadow=0;dashed=0;shape=mxgraph.bootstrap.rrect;rSize=5;fontSize=14;fontColor=#33A64C;strokeColor=#FF0080;fillColor=none;" vertex="1" parent="Ih-YGPsCaoq6DHACvWlH-7">
          <mxGeometry x="1" width="70" height="40" relative="1" as="geometry">
            <mxPoint x="-80" y="10" as="offset" />
          </mxGeometry>
        </mxCell>
        <mxCell id="Ih-YGPsCaoq6DHACvWlH-14" value="Buscar" style="html=1;shadow=0;dashed=0;shape=mxgraph.bootstrap.rrect;rSize=5;fontSize=14;fontColor=#6C767D;strokeColor=#CED4DA;fillColor=#ffffff;align=left;spacing=10;" vertex="1" parent="Ih-YGPsCaoq6DHACvWlH-7">
          <mxGeometry x="1" width="180" height="40" relative="1" as="geometry">
            <mxPoint x="-270" y="10" as="offset" />
          </mxGeometry>
        </mxCell>
        <mxCell id="Ih-YGPsCaoq6DHACvWlH-23" value="Blog" style="fillColor=none;strokeColor=none;fontSize=14;fontColor=#181819;align=center;" vertex="1" parent="Ih-YGPsCaoq6DHACvWlH-7">
          <mxGeometry x="160" y="15" width="70" height="40" as="geometry" />
        </mxCell>
        <mxCell id="Ih-YGPsCaoq6DHACvWlH-24" value="Nosotras" style="fillColor=none;strokeColor=none;fontSize=14;fontColor=#181819;align=center;" vertex="1" parent="Ih-YGPsCaoq6DHACvWlH-7">
          <mxGeometry x="90" y="15" width="70" height="40" as="geometry" />
        </mxCell>
        <mxCell id="Ih-YGPsCaoq6DHACvWlH-25" value="Noticias" style="fillColor=none;strokeColor=none;fontSize=14;fontColor=#181819;align=center;" vertex="1" parent="Ih-YGPsCaoq6DHACvWlH-7">
          <mxGeometry x="230" y="15" width="70" height="40" as="geometry" />
        </mxCell>
        <mxCell id="Ih-YGPsCaoq6DHACvWlH-3" style="edgeStyle=orthogonalEdgeStyle;rounded=0;orthogonalLoop=1;jettySize=auto;html=1;" edge="1" parent="1" source="Ih-YGPsCaoq6DHACvWlH-2" target="Ih-YGPsCaoq6DHACvWlH-1">
          <mxGeometry relative="1" as="geometry">
            <mxPoint x="400" y="450" as="sourcePoint" />
            <Array as="points">
              <mxPoint x="820" y="360" />
              <mxPoint x="820" y="270" />
              <mxPoint x="425" y="270" />
            </Array>
          </mxGeometry>
        </mxCell>
        <mxCell id="Ih-YGPsCaoq6DHACvWlH-26" value="" style="rounded=0;whiteSpace=wrap;html=1;fontFamily=Times New Roman;fontColor=#FF0080;strokeColor=#FF0080;fillColor=#F19C99;gradientColor=#ffffff;" vertex="1" parent="1">
          <mxGeometry y="270" width="850" height="740" as="geometry" />
        </mxCell>
        <mxCell id="Ih-YGPsCaoq6DHACvWlH-27" value="&lt;h1&gt;Desarrollo web&lt;br&gt;&lt;/h1&gt;&lt;p&gt;Lorem ipsum dolor sit amet, consectetur adipisicing elit, sed do eiusmod tempor incididunt ut labore et dolore magna aliqua.&lt;/p&gt;" style="text;html=1;strokeColor=#ae4132;fillColor=#fad9d5;spacing=5;spacingTop=-20;whiteSpace=wrap;overflow=hidden;rounded=0;fontFamily=Times New Roman;fontColor=#FF0080;" vertex="1" parent="1">
          <mxGeometry x="20" y="530" width="190" height="120" as="geometry" />
        </mxCell>
        <mxCell id="Ih-YGPsCaoq6DHACvWlH-29" value="" style="ellipse;shape=cloud;whiteSpace=wrap;html=1;fontFamily=Times New Roman;fontColor=#FF0080;strokeColor=#FF0080;fillColor=#FFD4D2;" vertex="1" parent="1">
          <mxGeometry x="210" y="310" width="210" height="210" as="geometry" />
        </mxCell>
        <mxCell id="Ih-YGPsCaoq6DHACvWlH-30" value="" style="shape=cube;whiteSpace=wrap;html=1;boundedLbl=1;backgroundOutline=1;darkOpacity=0.05;darkOpacity2=0.1;fontFamily=Times New Roman;fontColor=#FF0080;strokeColor=#FF0080;fillColor=#FFD4D2;" vertex="1" parent="1">
          <mxGeometry x="40" y="340" width="150" height="165" as="geometry" />
        </mxCell>
        <mxCell id="Ih-YGPsCaoq6DHACvWlH-32" value="&lt;h1&gt;Heading&lt;/h1&gt;&lt;p&gt;Lorem ipsum dolor sit amet, consectetur adipisicing elit, sed do eiusmod tempor incididunt ut labore et dolore magna aliqua.&lt;/p&gt;" style="text;html=1;strokeColor=none;fillColor=none;spacing=5;spacingTop=-20;whiteSpace=wrap;overflow=hidden;rounded=0;fontFamily=Times New Roman;fontColor=#FF0080;" vertex="1" parent="1">
          <mxGeometry x="235" y="530" width="190" height="120" as="geometry" />
        </mxCell>
        <mxCell id="Ih-YGPsCaoq6DHACvWlH-33" value="&lt;h1&gt;Heading&lt;/h1&gt;&lt;p&gt;Lorem ipsum dolor sit amet, consectetur adipisicing elit, sed do eiusmod tempor incididunt ut labore et dolore magna aliqua.&lt;/p&gt;" style="text;html=1;strokeColor=none;fillColor=none;spacing=5;spacingTop=-20;whiteSpace=wrap;overflow=hidden;rounded=0;fontFamily=Times New Roman;fontColor=#FF0080;" vertex="1" parent="1">
          <mxGeometry x="480" y="540" width="190" height="120" as="geometry" />
        </mxCell>
        <mxCell id="Ih-YGPsCaoq6DHACvWlH-34" value="" style="shape=cylinder3;whiteSpace=wrap;html=1;boundedLbl=1;backgroundOutline=1;size=15;fontFamily=Times New Roman;fontColor=#FF0080;strokeColor=#FF0080;fillColor=#FFD4D2;" vertex="1" parent="1">
          <mxGeometry x="500" y="350" width="110" height="170" as="geometry" />
        </mxCell>
        <mxCell id="Ih-YGPsCaoq6DHACvWlH-35" value="Label" style="html=1;whiteSpace=wrap;container=1;recursiveResize=0;collapsible=0;fontFamily=Times New Roman;fontColor=#FF0080;strokeColor=#FF0080;fillColor=#FFD4D2;" vertex="1" parent="1">
          <mxGeometry x="40" y="690" width="380" height="150" as="geometry" />
        </mxCell>
        <mxCell id="Ih-YGPsCaoq6DHACvWlH-36" value="" style="triangle;html=1;whiteSpace=wrap;fontFamily=Times New Roman;fontColor=#FF0080;strokeColor=#FF0080;fillColor=#FFD4D2;" vertex="1" parent="Ih-YGPsCaoq6DHACvWlH-35">
          <mxGeometry x="20" y="20" width="20" height="30" as="geometry" />
        </mxCell>
        <mxCell id="Ih-YGPsCaoq6DHACvWlH-37" value="Branch" style="whiteSpace=wrap;html=1;shape=partialRectangle;top=0;left=0;bottom=1;right=0;points=[[0,1],[1,1]];fillColor=none;align=center;verticalAlign=bottom;routingCenterY=0.5;snapToPoint=1;recursiveResize=0;autosize=1;treeFolding=1;treeMoving=1;newEdgeStyle={&quot;edgeStyle&quot;:&quot;entityRelationEdgeStyle&quot;,&quot;startArrow&quot;:&quot;none&quot;,&quot;endArrow&quot;:&quot;none&quot;,&quot;segment&quot;:10,&quot;curved&quot;:1};fontFamily=Times New Roman;fontColor=#FF0080;strokeColor=#FF0080;" vertex="1" parent="1">
          <mxGeometry x="555" y="740" width="80" height="20" as="geometry" />
        </mxCell>
        <mxCell id="Ih-YGPsCaoq6DHACvWlH-38" value="" style="edgeStyle=entityRelationEdgeStyle;startArrow=none;endArrow=none;segment=10;curved=1;rounded=0;fontFamily=Times New Roman;fontColor=#FF0080;" edge="1" target="Ih-YGPsCaoq6DHACvWlH-37" parent="1">
          <mxGeometry relative="1" as="geometry">
            <mxPoint x="515" y="780" as="sourcePoint" />
          </mxGeometry>
        </mxCell>
        <mxCell id="Ih-YGPsCaoq6DHACvWlH-39" value="SUSCRIBIRSE" style="labelPosition=center;verticalLabelPosition=middle;align=center;html=1;shape=mxgraph.basic.shaded_button;dx=10;fillColor=#E6E6E6;strokeColor=none;fontFamily=Times New Roman;fontColor=#FF0080;" vertex="1" parent="1">
          <mxGeometry x="720" y="300" width="100" height="60" as="geometry" />
        </mxCell>
        <mxCell id="Ih-YGPsCaoq6DHACvWlH-40" value="" style="verticalLabelPosition=bottom;verticalAlign=top;html=1;shape=mxgraph.basic.star;fontFamily=Times New Roman;fontColor=#FF0080;strokeColor=#FF0080;fillColor=#FFD4D2;" vertex="1" parent="1">
          <mxGeometry x="525" y="415" width="60" height="40" as="geometry" />
        </mxCell>
        <mxCell id="Ih-YGPsCaoq6DHACvWlH-41" value="" style="verticalLabelPosition=bottom;verticalAlign=top;html=1;shape=mxgraph.basic.smiley;fontFamily=Times New Roman;fontColor=#FF0080;strokeColor=#FF0080;fillColor=#FFD4D2;" vertex="1" parent="1">
          <mxGeometry x="720" y="360" width="100" height="100" as="geometry" />
        </mxCell>
        <mxCell id="Ih-YGPsCaoq6DHACvWlH-42" value="más..." style="html=1;shadow=0;dashed=0;shape=mxgraph.bootstrap.rrect;rSize=5;strokeColor=none;strokeWidth=1;fillColor=none;fontColor=#0085FC;whiteSpace=wrap;align=center;verticalAlign=middle;spacingLeft=0;fontStyle=0;fontSize=16;spacing=5;fontFamily=Times New Roman;" vertex="1" parent="1">
          <mxGeometry x="330" y="610" width="60" height="40" as="geometry" />
        </mxCell>
        <mxCell id="Ih-YGPsCaoq6DHACvWlH-45" value="más..." style="html=1;shadow=0;dashed=0;shape=mxgraph.bootstrap.rrect;rSize=5;strokeColor=none;strokeWidth=1;fillColor=none;fontColor=#0085FC;whiteSpace=wrap;align=center;verticalAlign=middle;spacingLeft=0;fontStyle=0;fontSize=16;spacing=5;fontFamily=Times New Roman;" vertex="1" parent="1">
          <mxGeometry x="120" y="610" width="60" height="40" as="geometry" />
        </mxCell>
        <mxCell id="Ih-YGPsCaoq6DHACvWlH-46" value="más..." style="html=1;shadow=0;dashed=0;shape=mxgraph.bootstrap.rrect;rSize=5;strokeColor=none;strokeWidth=1;fillColor=none;fontColor=#0085FC;whiteSpace=wrap;align=center;verticalAlign=middle;spacingLeft=0;fontStyle=0;fontSize=16;spacing=5;fontFamily=Times New Roman;" vertex="1" parent="1">
          <mxGeometry x="575" y="620" width="60" height="40" as="geometry" />
        </mxCell>
      </root>
    </mxGraphModel>
  </diagram>
</mxfile>
